<svg width="469" height="243" xmlns="http://www.w3.org/2000/svg">
 <!-- Created with Method Draw - http://github.com/duopixel/Method-Draw/ -->

 <g>
  <title>background</title>
  <rect fill="none" id="canvas_background" height="245" width="471" y="-1" x="-1"/>
  <g display="none" overflow="visible" y="0" x="0" height="100%" width="100%" id="canvasGrid">
   <rect fill="url(#gridpattern)" stroke-width="0" y="0" x="0" height="100%" width="100%"/>
  </g>
 </g>
 <g>
  <title>Layer 1</title>
  <!-- Created with Method Draw - http://github.com/duopixel/Method-Draw/ -->
  <g stroke="null" id="svg_28">
   <rect transform="matrix(0.9651699989364425,0,0,0.9651699989364425,-1086.3751996457722,-749.8791498088394) " stroke="null" x="1326.768248" y="832.628559" width="286" height="199" id="svg_23" fill="none"/>
   <g transform="matrix(0.9651699989364425,0,0,0.9651699989364425,-1086.3751996457722,-749.8791498088394) " stroke="null" id="svg_22" display="none">
    <rect stroke="null" id="svg_26" width="580" height="400" x="1328.768253" y="834.628561" stroke-width="0" fill="url(#gridpattern)"/>
   </g>
   <g stroke="null" transform="matrix(0.9651699989364425,0,0,0.9651699989364425,-1086.3751996457722,-749.8791498088394) " id="svg_27">
    <title stroke="null" transform="translate(-44.861610412597656,-38.45280838012695) translate(173.02651977539062,-16.577390670776367) translate(25.902172088623047,79.77869415283203) translate(1173.701171875,0) translate(0,808.8800659179688) ">Layer 1</title>
    <metadata stroke="null" transform="translate(-44.861610412597656,-38.45280838012695) translate(173.02651977539062,-16.577390670776367) translate(25.902172088623047,79.77869415283203) translate(1173.701171875,0) translate(0,808.8800659179688) ">Svg Vector Icons : http://www.onlinewebfonts.com/icon</metadata>
    <g stroke="null" id="svg_14">
     <g stroke="null" id="svg_15" transform="matrix(0.2841054993754942,0,0,0.2841054993754942,-20.899647675829556,-54.232772511019384) ">
      <g stroke="null" transform="translate(0,511) scale(0.10000000149011612,-0.10000000149011612) " id="svg_16">
       <path stroke="null" d="m50194.999604,-26289.938656c-67.7,-24.9 -156.7,-89.1 -195.9,-142.5c-67.7,-92.6 -74.8,-156.8 -85.5,-776.6l-14.3,-673.3l-684,0c-641.2,0 -694.7,-3.6 -783.7,-74.8l-92.6,-71.3l0,-744.4l0,-741l-320.6,-14.3c-513,-24.9 -470.2,121.1 -470.2,-1652.9c0,-822.9 3.6,-1521.1 3.6,-1553.2c3.6,-35.6 39.2,-92.6 81.9,-135.4c74.8,-71.3 114,-71.3 2169.5,-71.3c2059,0 2091.1,0 2183.7,74.8c92.6,71.3 92.6,74.8 92.6,570l0,495.2l395.4,0l399,0l-24.9,-138.9c-39.2,-252.9 -82,-317 -267.2,-409.7c-210.2,-106.9 -288.6,-206.6 -288.6,-366.9c0,-220.9 17.8,-224.4 1378.6,-224.4c1175.6,0 1225.4,3.6 1293.1,71.3c160.3,160.3 53.4,381.2 -245.8,509.4c-203,89.1 -217.3,99.7 -267.2,277.9c-32,103.3 -57,210.2 -57,235.1c0,35.6 252.9,46.3 1318.1,46.3c1464.1,0 1474.8,0 1581.7,228c53.4,114 57,356.2 49.8,2582.7c-10.7,2429.5 -10.7,2458 -85.5,2557.8c-39.2,53.4 -128.3,117.5 -195.9,142.5c-174.5,60.5 -6693.6,60.5 -6868.1,-0.1zm6864.6,-224.4l78.4,-53.4l0,-1959.3l0,-1955.7l-2518.6,7.1l-2522.1,10.7l-10.7,1218.3l-7.1,1218.3l-92.6,71.3c-89.1,71.2 -138.9,74.8 -979.6,74.8l-887,0l0,641.2c0,594.9 3.6,644.8 71.2,712.5c71.3,71.3 117.6,71.3 3430.5,71.3c2981.6,-0.1 3366.3,-7.2 3437.6,-57.1zm-5176.1,-3897.2l0,-2297.7l-1164.9,-10.7l-1168.4,-7.1l0,1492.6l0,1496.2l-85.5,99.8c-85.5,96.2 -96.2,99.7 -516.5,110.4l-431,14.3l0,683.9c0,377.6 10.7,698.2 24.9,708.9c10.7,14.3 769.4,21.4 1681.4,17.8l1660,-10.7l0,-2297.7zm-2554.2,-830l7.1,-1485.5l-790.8,7.1l-794.4,10.7l-10.7,1442.7c-3.6,794.4 0,1464.1 10.7,1489c10.7,35.6 188.8,42.8 790.8,35.6l776.6,-10.7l10.7,-1488.9zm7808.6,174.5c0,-324.2 -10.7,-420.4 -57,-463.1c-49.9,-49.8 -327.7,-57 -2529.2,-57l-2472.3,0l0,463.1l0,463.1l2529.2,0l2529.2,0l0,-406.1l0.1,0zm-2917.5,-936.8c67.7,-317.1 117.5,-388.3 359.8,-516.5c121.1,-64.1 228,-138.9 235.1,-160.3c10.7,-35.6 -235.1,-46.3 -1147,-46.3c-1001,0 -1161.3,7.1 -1161.3,53.4c0,28.5 67.7,85.5 153.2,128.2c245.8,124.7 299.2,195.9 366.9,480.9l64.1,263.6l541.5,0l545,0l42.7,-203z" id="svg_21" fill="#f26c23"/>
       <path stroke="null" d="m53454.499604,-26831.438656c-106.9,-106.9 -32.1,-163.9 206.6,-153.2c188.8,10.7 217.3,21.4 228,85.5c7.1,53.4 -14.2,81.9 -71.3,99.7c-146,35.7 -306.3,21.5 -363.3,-32z" id="svg_20" fill="#f26c23"/>
       <path stroke="null" d="m50084.599604,-28252.738656c-96.2,-117.5 64.1,-256.5 171,-149.6c46.3,46.3 49.9,71.3 21.4,121.1c-53.5,81.9 -135.5,92.6 -192.4,28.5z" id="svg_19" fill="#f26c23"/>
       <path stroke="null" d="m49956.299604,-32139.238656c-39.2,-96.2 35.6,-128.3 274.3,-117.5c199.5,10.7 228,17.8 228,81.9c0,64.1 -28.5,71.3 -242.2,81.9c-192.4,7.1 -242.3,0 -260.1,-46.3z" id="svg_18" fill="#f26c23"/>
       <path stroke="null" d="m48281.999604,-32246.138656c-35.6,-92.6 24.9,-124.7 252.9,-124.7c171,0 228,14.2 245.8,57c35.6,96.2 -10.7,121.1 -249.4,121.1c-167.3,0.1 -235,-14.2 -249.3,-53.4z" id="svg_17" fill="#f26c23"/>
      </g>
     </g>
    </g>
   </g>
  </g>
  <line stroke="#f26c23" stroke-linecap="null" stroke-linejoin="null" id="svg_29" y2="209.571698" x2="197.493351" y1="209.571698" x1="70.941644" stroke-width="5" fill="none"/>
  <line stroke="#f26c23" stroke-linecap="null" stroke-linejoin="null" id="svg_30" y2="207.843225" x2="126.960165" y1="189.164284" x1="126.960165" stroke-width="5" fill="none"/>
  <path stroke="#f26c23" id="svg_32" d="m199.70092,188.171451c0,0 -170,0 -186,0c-11.1111,0.65924 -8,-10.86794 -8.5,-11.36193c0.5,-10.50601 1.5,-161.53707 1.5,-161.53707c0,0 2.5,-8.41596 11.5,-7.40996c10.5,-0.494 301.5,-1.48199 301,-1.97599c10,0.494 8.5,19.36193 8,10.86794c0,21.99399 0,42.96574 1,43.47175c-19.5,0.49399 -32.5,0.96998 -48.5,0.97599c-15.5,-2.00601 -15,13.34992 -15.5,12.85593c0.5,0.49399 0.5,31.12182 0,30.62782c0.5,0.494 -24,0.006 -33,1.01201c-12,-0.50601 -9.5,5.34993 -10,9.85593c0,13.494 0.5,34.0858 0,33.59181c0.5,0.49399 -3,2.48199 -16,1.98799c-6,-4.006 -6.5,6.88595 -4.5,10.89195c-1,11.994 -1,26.14583 -1,26.14583z" fill-opacity="null" stroke-opacity="null" stroke-width="5" fill="none"/>
 </g>
</svg>